<mxfile host="app.diagrams.net" modified="2023-10-18T22:51:18.556Z" agent="Mozilla/5.0 (Windows NT 10.0; Win64; x64) AppleWebKit/537.36 (KHTML, like Gecko) Chrome/118.0.0.0 Safari/537.36" version="22.0.4" etag="4xpcNtdRept_1uP9yoaH" type="device">
  <diagram id="0skp8sg_g3C_ar09sCD9" name="Page-1">
    <mxGraphModel dx="882" dy="590" grid="1" gridSize="10" guides="1" tooltips="1" connect="1" arrows="1" fold="1" page="1" pageScale="1" pageWidth="850" pageHeight="1100" math="0" shadow="0">
      <root>
        <mxCell id="0" />
        <mxCell id="1" parent="0" />
        <mxCell id="l1ZWfpOvFa45eJeAlfOC-3" value="" style="swimlane;startSize=0;" vertex="1" parent="1">
          <mxGeometry x="200" y="80" width="480" height="120" as="geometry" />
        </mxCell>
        <mxCell id="l1ZWfpOvFa45eJeAlfOC-5" value="Index table" style="rounded=1;whiteSpace=wrap;html=1;" vertex="1" parent="l1ZWfpOvFa45eJeAlfOC-3">
          <mxGeometry x="360" y="40" width="80" height="40" as="geometry" />
        </mxCell>
        <mxCell id="l1ZWfpOvFa45eJeAlfOC-20" style="edgeStyle=orthogonalEdgeStyle;rounded=0;orthogonalLoop=1;jettySize=auto;html=1;exitX=1;exitY=0.5;exitDx=0;exitDy=0;entryX=0;entryY=0.5;entryDx=0;entryDy=0;" edge="1" parent="l1ZWfpOvFa45eJeAlfOC-3" source="l1ZWfpOvFa45eJeAlfOC-6" target="l1ZWfpOvFa45eJeAlfOC-7">
          <mxGeometry relative="1" as="geometry" />
        </mxCell>
        <mxCell id="l1ZWfpOvFa45eJeAlfOC-6" value="Object storage" style="rounded=1;whiteSpace=wrap;html=1;" vertex="1" parent="l1ZWfpOvFa45eJeAlfOC-3">
          <mxGeometry x="40" y="40" width="80" height="40" as="geometry" />
        </mxCell>
        <mxCell id="l1ZWfpOvFa45eJeAlfOC-21" style="edgeStyle=orthogonalEdgeStyle;rounded=0;orthogonalLoop=1;jettySize=auto;html=1;exitX=1;exitY=0.5;exitDx=0;exitDy=0;entryX=0;entryY=0.5;entryDx=0;entryDy=0;" edge="1" parent="l1ZWfpOvFa45eJeAlfOC-3" source="l1ZWfpOvFa45eJeAlfOC-7" target="l1ZWfpOvFa45eJeAlfOC-5">
          <mxGeometry relative="1" as="geometry" />
        </mxCell>
        <mxCell id="l1ZWfpOvFa45eJeAlfOC-7" value="Indexing service" style="rounded=1;whiteSpace=wrap;html=1;" vertex="1" parent="l1ZWfpOvFa45eJeAlfOC-3">
          <mxGeometry x="200" y="40" width="80" height="40" as="geometry" />
        </mxCell>
        <mxCell id="l1ZWfpOvFa45eJeAlfOC-4" value="" style="swimlane;startSize=0;" vertex="1" parent="1">
          <mxGeometry x="200" y="240" width="480" height="200" as="geometry" />
        </mxCell>
        <mxCell id="l1ZWfpOvFa45eJeAlfOC-22" style="edgeStyle=orthogonalEdgeStyle;rounded=0;orthogonalLoop=1;jettySize=auto;html=1;exitX=1;exitY=0.5;exitDx=0;exitDy=0;entryX=0;entryY=0.5;entryDx=0;entryDy=0;" edge="1" parent="l1ZWfpOvFa45eJeAlfOC-4" source="l1ZWfpOvFa45eJeAlfOC-8" target="l1ZWfpOvFa45eJeAlfOC-9">
          <mxGeometry relative="1" as="geometry" />
        </mxCell>
        <mxCell id="l1ZWfpOvFa45eJeAlfOC-25" style="edgeStyle=orthogonalEdgeStyle;rounded=0;orthogonalLoop=1;jettySize=auto;html=1;exitX=0.25;exitY=1;exitDx=0;exitDy=0;entryX=0.5;entryY=0;entryDx=0;entryDy=0;" edge="1" parent="l1ZWfpOvFa45eJeAlfOC-4" source="l1ZWfpOvFa45eJeAlfOC-8" target="l1ZWfpOvFa45eJeAlfOC-11">
          <mxGeometry relative="1" as="geometry" />
        </mxCell>
        <mxCell id="l1ZWfpOvFa45eJeAlfOC-26" style="edgeStyle=orthogonalEdgeStyle;rounded=0;orthogonalLoop=1;jettySize=auto;html=1;exitX=0.75;exitY=1;exitDx=0;exitDy=0;entryX=0.5;entryY=0;entryDx=0;entryDy=0;" edge="1" parent="l1ZWfpOvFa45eJeAlfOC-4" source="l1ZWfpOvFa45eJeAlfOC-8" target="l1ZWfpOvFa45eJeAlfOC-12">
          <mxGeometry relative="1" as="geometry" />
        </mxCell>
        <mxCell id="l1ZWfpOvFa45eJeAlfOC-8" value="Embedding generation service" style="rounded=1;whiteSpace=wrap;html=1;" vertex="1" parent="l1ZWfpOvFa45eJeAlfOC-4">
          <mxGeometry x="40" y="40" width="80" height="40" as="geometry" />
        </mxCell>
        <mxCell id="l1ZWfpOvFa45eJeAlfOC-23" style="edgeStyle=orthogonalEdgeStyle;rounded=0;orthogonalLoop=1;jettySize=auto;html=1;exitX=1;exitY=0.5;exitDx=0;exitDy=0;entryX=0;entryY=0.5;entryDx=0;entryDy=0;" edge="1" parent="l1ZWfpOvFa45eJeAlfOC-4" source="l1ZWfpOvFa45eJeAlfOC-9" target="l1ZWfpOvFa45eJeAlfOC-10">
          <mxGeometry relative="1" as="geometry" />
        </mxCell>
        <mxCell id="l1ZWfpOvFa45eJeAlfOC-9" value="Nearest neighbor service" style="rounded=1;whiteSpace=wrap;html=1;" vertex="1" parent="l1ZWfpOvFa45eJeAlfOC-4">
          <mxGeometry x="200" y="40" width="80" height="40" as="geometry" />
        </mxCell>
        <mxCell id="l1ZWfpOvFa45eJeAlfOC-10" value="Re-ranking service" style="rounded=1;whiteSpace=wrap;html=1;" vertex="1" parent="l1ZWfpOvFa45eJeAlfOC-4">
          <mxGeometry x="360" y="40" width="80" height="40" as="geometry" />
        </mxCell>
        <mxCell id="l1ZWfpOvFa45eJeAlfOC-27" style="edgeStyle=orthogonalEdgeStyle;rounded=0;orthogonalLoop=1;jettySize=auto;html=1;exitX=0.5;exitY=0;exitDx=0;exitDy=0;entryX=0.25;entryY=1;entryDx=0;entryDy=0;" edge="1" parent="l1ZWfpOvFa45eJeAlfOC-4" source="l1ZWfpOvFa45eJeAlfOC-11" target="l1ZWfpOvFa45eJeAlfOC-8">
          <mxGeometry relative="1" as="geometry" />
        </mxCell>
        <mxCell id="l1ZWfpOvFa45eJeAlfOC-11" value="Preprocess" style="rounded=1;whiteSpace=wrap;html=1;" vertex="1" parent="l1ZWfpOvFa45eJeAlfOC-4">
          <mxGeometry x="40" y="120" width="80" height="40" as="geometry" />
        </mxCell>
        <mxCell id="l1ZWfpOvFa45eJeAlfOC-28" style="edgeStyle=orthogonalEdgeStyle;rounded=0;orthogonalLoop=1;jettySize=auto;html=1;exitX=0.5;exitY=0;exitDx=0;exitDy=0;entryX=0.75;entryY=1;entryDx=0;entryDy=0;" edge="1" parent="l1ZWfpOvFa45eJeAlfOC-4" source="l1ZWfpOvFa45eJeAlfOC-12" target="l1ZWfpOvFa45eJeAlfOC-8">
          <mxGeometry relative="1" as="geometry" />
        </mxCell>
        <mxCell id="l1ZWfpOvFa45eJeAlfOC-12" value="Trained ML model" style="rounded=1;whiteSpace=wrap;html=1;" vertex="1" parent="l1ZWfpOvFa45eJeAlfOC-4">
          <mxGeometry x="160" y="120" width="80" height="40" as="geometry" />
        </mxCell>
        <mxCell id="l1ZWfpOvFa45eJeAlfOC-29" value="Prediction pipeline" style="text;html=1;strokeColor=none;fillColor=none;align=center;verticalAlign=middle;whiteSpace=wrap;rounded=0;" vertex="1" parent="l1ZWfpOvFa45eJeAlfOC-4">
          <mxGeometry width="120" height="30" as="geometry" />
        </mxCell>
        <mxCell id="l1ZWfpOvFa45eJeAlfOC-37" value="Image embedding" style="text;html=1;strokeColor=none;fillColor=none;align=center;verticalAlign=middle;whiteSpace=wrap;rounded=0;" vertex="1" parent="l1ZWfpOvFa45eJeAlfOC-4">
          <mxGeometry x="120" y="30" width="80" height="30" as="geometry" />
        </mxCell>
        <mxCell id="l1ZWfpOvFa45eJeAlfOC-18" style="edgeStyle=orthogonalEdgeStyle;rounded=0;orthogonalLoop=1;jettySize=auto;html=1;exitX=0.5;exitY=1;exitDx=0;exitDy=0;entryX=0.5;entryY=0;entryDx=0;entryDy=0;" edge="1" parent="1" source="l1ZWfpOvFa45eJeAlfOC-7" target="l1ZWfpOvFa45eJeAlfOC-9">
          <mxGeometry relative="1" as="geometry" />
        </mxCell>
        <mxCell id="l1ZWfpOvFa45eJeAlfOC-19" style="edgeStyle=orthogonalEdgeStyle;rounded=0;orthogonalLoop=1;jettySize=auto;html=1;exitX=0.5;exitY=0;exitDx=0;exitDy=0;entryX=0.5;entryY=1;entryDx=0;entryDy=0;" edge="1" parent="1" source="l1ZWfpOvFa45eJeAlfOC-9" target="l1ZWfpOvFa45eJeAlfOC-7">
          <mxGeometry relative="1" as="geometry" />
        </mxCell>
        <mxCell id="l1ZWfpOvFa45eJeAlfOC-30" value="Indexing pipeline" style="text;html=1;strokeColor=none;fillColor=none;align=center;verticalAlign=middle;whiteSpace=wrap;rounded=0;" vertex="1" parent="1">
          <mxGeometry x="210" y="90" width="120" height="30" as="geometry" />
        </mxCell>
        <mxCell id="l1ZWfpOvFa45eJeAlfOC-32" style="edgeStyle=orthogonalEdgeStyle;rounded=0;orthogonalLoop=1;jettySize=auto;html=1;exitX=1;exitY=0.5;exitDx=0;exitDy=0;entryX=0;entryY=0.5;entryDx=0;entryDy=0;" edge="1" parent="1" source="l1ZWfpOvFa45eJeAlfOC-31" target="l1ZWfpOvFa45eJeAlfOC-6">
          <mxGeometry relative="1" as="geometry" />
        </mxCell>
        <mxCell id="l1ZWfpOvFa45eJeAlfOC-31" value="New images" style="rounded=1;whiteSpace=wrap;html=1;" vertex="1" parent="1">
          <mxGeometry x="40" y="110" width="120" height="60" as="geometry" />
        </mxCell>
        <mxCell id="l1ZWfpOvFa45eJeAlfOC-34" style="edgeStyle=orthogonalEdgeStyle;rounded=0;orthogonalLoop=1;jettySize=auto;html=1;exitX=1;exitY=0.5;exitDx=0;exitDy=0;entryX=0;entryY=0.5;entryDx=0;entryDy=0;" edge="1" parent="1" source="l1ZWfpOvFa45eJeAlfOC-33" target="l1ZWfpOvFa45eJeAlfOC-8">
          <mxGeometry relative="1" as="geometry" />
        </mxCell>
        <mxCell id="l1ZWfpOvFa45eJeAlfOC-33" value="Query image" style="rounded=1;whiteSpace=wrap;html=1;" vertex="1" parent="1">
          <mxGeometry x="40" y="270" width="120" height="60" as="geometry" />
        </mxCell>
        <mxCell id="l1ZWfpOvFa45eJeAlfOC-35" value="Ranked images" style="rounded=1;whiteSpace=wrap;html=1;" vertex="1" parent="1">
          <mxGeometry x="720" y="270" width="120" height="60" as="geometry" />
        </mxCell>
        <mxCell id="l1ZWfpOvFa45eJeAlfOC-36" style="edgeStyle=orthogonalEdgeStyle;rounded=0;orthogonalLoop=1;jettySize=auto;html=1;exitX=1;exitY=0.5;exitDx=0;exitDy=0;entryX=0;entryY=0.5;entryDx=0;entryDy=0;" edge="1" parent="1" source="l1ZWfpOvFa45eJeAlfOC-10" target="l1ZWfpOvFa45eJeAlfOC-35">
          <mxGeometry relative="1" as="geometry" />
        </mxCell>
      </root>
    </mxGraphModel>
  </diagram>
</mxfile>
